<svg width="165" height="30" viewBox="0 0 165 30" fill="none" xmlns="http://www.w3.org/2000/svg">
<g id="Icon">
<g id="Instagram">
<rect id="Rectangle 27" width="30" height="30" rx="5" fill="white"/>
<path id="Vector" d="M19.19 5H10.81C7.17 5 5 7.17 5 10.81V19.18C5 22.83 7.17 25 10.81 25H19.18C22.82 25 24.99 22.83 24.99 19.19V10.81C25 7.17 22.83 5 19.19 5ZM15 18.88C12.86 18.88 11.12 17.14 11.12 15C11.12 12.86 12.86 11.12 15 11.12C17.14 11.12 18.88 12.86 18.88 15C18.88 17.14 17.14 18.88 15 18.88ZM20.92 9.88C20.87 10 20.8 10.11 20.71 10.21C20.61 10.3 20.5 10.37 20.38 10.42C20.198 10.4972 19.9971 10.5185 19.803 10.4811C19.6089 10.4437 19.4303 10.3493 19.29 10.21C19.2 10.11 19.13 10 19.08 9.88C19.0286 9.75982 19.0015 9.63069 19 9.5C19 9.37 19.03 9.24 19.08 9.12C19.13 8.99 19.2 8.89 19.29 8.79C19.52 8.56 19.87 8.45 20.19 8.52C20.26 8.53 20.32 8.55 20.38 8.58C20.44 8.6 20.5 8.63 20.56 8.67C20.61 8.7 20.66 8.75 20.71 8.79C20.8 8.89 20.87 8.99 20.92 9.12C20.97 9.24 21 9.37 21 9.5C21 9.63 20.97 9.76 20.92 9.88Z" fill="#00A890"/>
</g>
<g id="Dribbble">
<rect id="Rectangle 28" x="45" width="30" height="30" rx="5" fill="white"/>
<path id="Vector_2" fill-rule="evenodd" clip-rule="evenodd" d="M63.87 23.908C63.9 24.068 63.81 24.238 63.66 24.298C62.53 24.748 61.29 24.988 60.01 24.988C57.8 24.988 55.76 24.278 54.11 23.058C53.97 22.958 53.93 22.758 54.02 22.608C54.57 21.628 56.72 18.478 61.47 16.718C61.65 16.648 61.85 16.738 61.91 16.918C63.1 20.108 63.66 22.808 63.87 23.908ZM69.81 16.876C69.3514 19.2948 68.0071 21.4556 66.04 22.936C65.83 23.096 65.53 22.976 65.48 22.726C65.27 21.646 64.76 19.316 63.78 16.546C63.71 16.336 63.85 16.106 64.07 16.076C66.56 15.776 68.74 16.256 69.56 16.476C69.73 16.536 69.84 16.706 69.81 16.876ZM69.58 14.807C68.56 14.627 65.96 14.247 63.3 14.537C63.14 14.557 63 14.467 62.93 14.317C62.89 14.227 62.86 14.137 62.82 14.047C62.66 13.677 62.49 13.297 62.32 12.927C62.23 12.747 62.32 12.527 62.5 12.447C65.3 11.237 66.86 9.677 67.47 8.977C67.62 8.807 67.88 8.817 68.02 8.997C69.2002 10.568 69.886 12.4548 69.99 14.417C70 14.667 69.8 14.847 69.58 14.807ZM66.43 7.78C65.91 8.41 64.45 9.91 61.68 11.01C61.5998 11.0424 61.5105 11.0439 61.4293 11.0144C61.3481 10.9849 61.2806 10.9263 61.24 10.85C60.2487 9.07263 59.1569 7.35318 57.97 5.7C57.82 5.49 57.94 5.19 58.19 5.15C58.77 5.05 59.38 5 60 5C62.42 5 64.65 5.86 66.38 7.3C66.53 7.41 66.55 7.63 66.43 7.78ZM59.01 11.828C55.22 12.778 51.87 12.908 50.65 12.928C50.42 12.928 50.25 12.708 50.31 12.488C51.03 9.688 52.95 7.348 55.48 6.058C55.63 5.978 55.82 6.028 55.92 6.168C56.44 6.888 57.85 8.918 59.23 11.308C59.34 11.508 59.24 11.768 59.01 11.828ZM60.91 14.587C61 14.777 60.89 15.007 60.69 15.077C56.26 16.507 53.61 20.057 52.81 21.277C52.68 21.477 52.4 21.487 52.25 21.307C50.85 19.587 50 17.617 50 15.227V15.047C50 14.847 50.16 14.687 50.36 14.697C51.62 14.747 55.73 14.577 60 13.347C60.16 13.297 60.34 13.377 60.41 13.527C60.58 13.877 60.75 14.227 60.91 14.587Z" fill="#00A890"/>
</g>
<g id="Facebook">
<rect id="Rectangle 29" x="90" width="30" height="30" rx="5" fill="white"/>
<path id="Vector_3" d="M115 19.19C115 22.83 112.83 25 109.19 25H108C107.45 25 107 24.55 107 24V18.23C107 17.96 107.22 17.73 107.49 17.73L109.25 17.7C109.39 17.69 109.51 17.59 109.54 17.45L109.89 15.54C109.897 15.4967 109.894 15.4525 109.882 15.4103C109.87 15.3681 109.849 15.3291 109.821 15.2958C109.792 15.2625 109.757 15.2358 109.717 15.2176C109.677 15.1993 109.634 15.1899 109.59 15.19L107.46 15.22C107.18 15.22 106.96 15 106.95 14.73L106.91 12.28C106.91 12.12 107.04 11.98 107.21 11.98L109.61 11.94C109.78 11.94 109.91 11.81 109.91 11.64L109.87 9.24C109.87 9.07 109.74 8.94 109.57 8.94L106.87 8.98C106.476 8.98599 106.087 9.06969 105.725 9.22632C105.363 9.38295 105.036 9.60942 104.762 9.89276C104.488 10.1761 104.273 10.5107 104.128 10.8775C103.984 11.2442 103.913 11.6359 103.92 12.03L103.97 14.78C103.98 15.06 103.76 15.28 103.48 15.29L102.28 15.31C102.11 15.31 101.98 15.44 101.98 15.61L102.01 17.51C102.01 17.68 102.14 17.81 102.31 17.81L103.51 17.79C103.79 17.79 104.01 18.01 104.02 18.28L104.11 23.98C104.12 24.54 103.67 25 103.11 25H100.81C97.17 25 95 22.83 95 19.18V10.81C95 7.17 97.17 5 100.81 5H109.19C112.83 5 115 7.17 115 10.81V19.19Z" fill="#00A890"/>
</g>
<g id="Behance">
<g id="Group 125">
<rect id="Rectangle 30" x="135" width="30" height="30" rx="5" fill="white"/>
<path id="Vector_4" d="M147.209 22H141.628C140.735 22 140 21.2393 140 20.3148V10.6852C140 9.76074 140.735 9 141.628 9H146.279C148.205 9 149.767 10.6178 149.767 12.6111C149.767 13.603 149.377 14.4985 148.753 15.1533C149.907 15.7407 150.698 16.9733 150.698 18.3889C150.698 20.3822 149.135 22 147.209 22ZM141.395 16.2222V20.3148C141.395 20.4496 141.498 20.5556 141.628 20.5556H147.209C148.363 20.5556 149.302 19.583 149.302 18.3889C149.302 17.1948 148.363 16.2222 147.209 16.2222H141.395ZM141.395 14.7778H146.279C147.433 14.7778 148.372 13.8052 148.372 12.6111C148.372 11.417 147.433 10.4444 146.279 10.4444H141.628C141.498 10.4444 141.395 10.5504 141.395 10.6852V14.7778ZM157.135 22H155.581C153.144 22 151.163 19.9489 151.163 17.4259C151.163 14.903 153.144 12.8519 155.581 12.8519C158.019 12.8519 160 14.903 160 17.4259C160 17.8207 159.684 18.1481 159.302 18.1481H152.642C152.958 19.5252 154.158 20.5556 155.581 20.5556H157.135C157.516 20.5556 157.833 20.883 157.833 21.2778C157.833 21.6726 157.516 22 157.135 22ZM152.642 16.7037H158.53C158.372 16.0193 157.996 15.4098 157.463 14.9732C156.93 14.5366 156.271 14.2982 155.591 14.2963C154.91 14.298 154.249 14.5362 153.715 14.9727C153.18 15.4091 152.802 16.0187 152.642 16.7037ZM156.977 11.8889H154.186C153.805 11.8889 153.488 11.5615 153.488 11.1667C153.488 10.7719 153.805 10.4444 154.186 10.4444H156.977C157.358 10.4444 157.674 10.7719 157.674 11.1667C157.674 11.5615 157.358 11.8889 156.977 11.8889Z" fill="#00A890"/>
</g>
</g>
</g>
</svg>
